<?xml version="1.0" standalone="no"?>
<!DOCTYPE svg PUBLIC "-//W3C//DTD SVG 20010904//EN"
 "http://www.w3.org/TR/2001/REC-SVG-20010904/DTD/svg10.dtd">
<svg version="1.0" xmlns="http://www.w3.org/2000/svg"
 width="90.000000pt" height="90.000000pt" viewBox="0 0 90.000000 90.000000"
 preserveAspectRatio="xMidYMid meet">
<metadata>
Created by potrace 1.14, written by Peter Selinger 2001-2017
</metadata>
<g transform="translate(0.000000,90.000000) scale(0.100000,-0.100000)"
fill="#000000" stroke="none">
<path d="M365 894 c-70 -18 -151 -56 -167 -79 -4 -5 -8 -6 -8 -1 0 6 -21 -13
-47 -41 -62 -65 -85 -93 -75 -93 4 0 2 -4 -5 -8 -21 -13 -53 -113 -59 -182 -9
-101 24 -231 76 -294 43 -53 94 -106 102 -106 5 0 18 -9 30 -20 12 -10 25 -17
30 -14 4 3 8 1 8 -4 0 -15 140 -52 195 -52 120 1 239 51 326 139 103 105 146
244 119 390 -38 209 -207 357 -420 366 -47 2 -94 2 -105 -1z"/>
</g>
</svg>
